<mxfile host="app.diagrams.net" agent="Mozilla/5.0 (Macintosh; Intel Mac OS X 10_15_7) AppleWebKit/605.1.15 (KHTML, like Gecko) Version/18.5 Safari/605.1.15" version="28.0.7">
  <diagram name="Page-1" id="i-JqIubEMsyhQfiGkljs">
    <mxGraphModel dx="1014" dy="707" grid="1" gridSize="10" guides="1" tooltips="1" connect="1" arrows="1" fold="1" page="1" pageScale="1" pageWidth="827" pageHeight="1169" math="0" shadow="0">
      <root>
        <mxCell id="0" />
        <mxCell id="1" parent="0" />
        <mxCell id="GxDDQMhnIpii0Mg6zeza-1" value="Trigger" style="html=1;whiteSpace=wrap;" vertex="1" parent="1">
          <mxGeometry x="210" y="330" width="110" height="50" as="geometry" />
        </mxCell>
        <mxCell id="GxDDQMhnIpii0Mg6zeza-6" style="edgeStyle=orthogonalEdgeStyle;rounded=0;orthogonalLoop=1;jettySize=auto;html=1;exitX=1;exitY=0.5;exitDx=0;exitDy=0;entryX=0;entryY=0.5;entryDx=0;entryDy=0;" edge="1" parent="1" source="GxDDQMhnIpii0Mg6zeza-2" target="GxDDQMhnIpii0Mg6zeza-3">
          <mxGeometry relative="1" as="geometry" />
        </mxCell>
        <mxCell id="GxDDQMhnIpii0Mg6zeza-2" value="Routine" style="html=1;whiteSpace=wrap;" vertex="1" parent="1">
          <mxGeometry x="370" y="270" width="110" height="50" as="geometry" />
        </mxCell>
        <mxCell id="GxDDQMhnIpii0Mg6zeza-3" value="Reward" style="html=1;whiteSpace=wrap;" vertex="1" parent="1">
          <mxGeometry x="530" y="330" width="110" height="50" as="geometry" />
        </mxCell>
        <object placeholders="1" c4Type="Relationship" id="GxDDQMhnIpii0Mg6zeza-5">
          <mxCell style="endArrow=blockThin;html=1;fontSize=10;fontColor=#404040;strokeWidth=1;endFill=1;strokeColor=#828282;elbow=vertical;metaEdit=1;endSize=14;startSize=14;jumpStyle=arc;jumpSize=16;rounded=0;edgeStyle=orthogonalEdgeStyle;exitX=1;exitY=0.5;exitDx=0;exitDy=0;entryX=0;entryY=0.5;entryDx=0;entryDy=0;" edge="1" parent="1" source="GxDDQMhnIpii0Mg6zeza-1" target="GxDDQMhnIpii0Mg6zeza-2">
            <mxGeometry width="240" relative="1" as="geometry">
              <mxPoint x="290" y="370" as="sourcePoint" />
              <mxPoint x="530" y="370" as="targetPoint" />
            </mxGeometry>
          </mxCell>
        </object>
      </root>
    </mxGraphModel>
  </diagram>
</mxfile>
